solid OpenSCAD_Model
  facet normal 1 -0 0
    outer loop
      vertex -10.45 -5 5
      vertex -10.45 0.45 -5
      vertex -10.45 0.45 5
    endloop
  endfacet
  facet normal 1 0 0
    outer loop
      vertex -10.45 0.45 -5
      vertex -10.45 -5 5
      vertex -10.45 -5 -5
    endloop
  endfacet
  facet normal 0 -1 0
    outer loop
      vertex -10.45 0.45 5
      vertex -5.45 0.45 -0.45
      vertex -5.45 0.45 5
    endloop
  endfacet
  facet normal 0 -1 0
    outer loop
      vertex -10.45 0.45 -5
      vertex -5.45 0.45 -0.45
      vertex -10.45 0.45 5
    endloop
  endfacet
  facet normal 0 -1 0
    outer loop
      vertex 0.45 0.45 -5
      vertex -5.45 0.45 -0.45
      vertex -10.45 0.45 -5
    endloop
  endfacet
  facet normal 0 -1 0
    outer loop
      vertex -5.45 0.45 -0.45
      vertex 0.45 0.45 -5
      vertex 0.45 0.45 -0.45
    endloop
  endfacet
  facet normal 0 0 1
    outer loop
      vertex 5.45 5 -0.45
      vertex 0.45 0.45 -0.45
      vertex 5.45 0.45 -0.45
    endloop
  endfacet
  facet normal -0 0 1
    outer loop
      vertex -5.45 5 -0.45
      vertex 0.45 0.45 -0.45
      vertex 5.45 5 -0.45
    endloop
  endfacet
  facet normal 0 0 1
    outer loop
      vertex 0.45 0.45 -0.45
      vertex -5.45 5 -0.45
      vertex -5.45 0.45 -0.45
    endloop
  endfacet
  facet normal -0 0 1
    outer loop
      vertex 5.45 0.45 -0.45
      vertex 10.45 -5 -0.45
      vertex 10.45 0.45 -0.45
    endloop
  endfacet
  facet normal 0 0 1
    outer loop
      vertex 0.45 -5 -0.45
      vertex 5.45 0.45 -0.45
      vertex 0.45 0.45 -0.45
    endloop
  endfacet
  facet normal 0 0 1
    outer loop
      vertex 5.45 0.45 -0.45
      vertex 0.45 -5 -0.45
      vertex 10.45 -5 -0.45
    endloop
  endfacet
  facet normal 1 -0 0
    outer loop
      vertex -5.45 0.45 5
      vertex -5.45 5 -0.45
      vertex -5.45 5 5
    endloop
  endfacet
  facet normal 1 0 0
    outer loop
      vertex -5.45 5 -0.45
      vertex -5.45 0.45 5
      vertex -5.45 0.45 -0.45
    endloop
  endfacet
  facet normal -1 0 0
    outer loop
      vertex 5.45 0.45 -0.45
      vertex 5.45 5 5
      vertex 5.45 5 -0.45
    endloop
  endfacet
  facet normal -1 -0 0
    outer loop
      vertex 5.45 5 5
      vertex 5.45 0.45 -0.45
      vertex 5.45 0.45 5
    endloop
  endfacet
  facet normal -1 0 0
    outer loop
      vertex 10.45 -5 -0.45
      vertex 10.45 0.45 5
      vertex 10.45 0.45 -0.45
    endloop
  endfacet
  facet normal -1 -0 0
    outer loop
      vertex 10.45 0.45 5
      vertex 10.45 -5 -0.45
      vertex 10.45 -5 5
    endloop
  endfacet
  facet normal 0 -1 0
    outer loop
      vertex 5.45 0.45 -0.45
      vertex 10.45 0.45 5
      vertex 5.45 0.45 5
    endloop
  endfacet
  facet normal 0 -1 -0
    outer loop
      vertex 10.45 0.45 5
      vertex 5.45 0.45 -0.45
      vertex 10.45 0.45 -0.45
    endloop
  endfacet
  facet normal -1 0 0
    outer loop
      vertex 0.45 -5 -5
      vertex 0.45 0.45 -0.45
      vertex 0.45 0.45 -5
    endloop
  endfacet
  facet normal -1 -0 0
    outer loop
      vertex 0.45 0.45 -0.45
      vertex 0.45 -5 -5
      vertex 0.45 -5 -0.45
    endloop
  endfacet
  facet normal -1 0 0
    outer loop
      vertex -30 -5 -5
      vertex -30 5 5
      vertex -30 5 -5
    endloop
  endfacet
  facet normal -1 -0 0
    outer loop
      vertex -30 5 5
      vertex -30 -5 -5
      vertex -30 -5 5
    endloop
  endfacet
  facet normal 0 0 1
    outer loop
      vertex 30 5 5
      vertex 10.45 0.45 5
      vertex 30 -5 5
    endloop
  endfacet
  facet normal -0 0 1
    outer loop
      vertex 5.45 5 5
      vertex 10.45 0.45 5
      vertex 30 5 5
    endloop
  endfacet
  facet normal 0 0 1
    outer loop
      vertex 10.45 0.45 5
      vertex 5.45 5 5
      vertex 5.45 0.45 5
    endloop
  endfacet
  facet normal 0 0 1
    outer loop
      vertex 30 -5 5
      vertex 10.45 0.45 5
      vertex 10.45 -5 5
    endloop
  endfacet
  facet normal 0 0 1
    outer loop
      vertex -5.45 5 5
      vertex -10.45 0.45 5
      vertex -5.45 0.45 5
    endloop
  endfacet
  facet normal -0 0 1
    outer loop
      vertex -30 5 5
      vertex -10.45 0.45 5
      vertex -5.45 5 5
    endloop
  endfacet
  facet normal 0 0 1
    outer loop
      vertex -30 -5 5
      vertex -10.45 0.45 5
      vertex -30 5 5
    endloop
  endfacet
  facet normal 0 0 1
    outer loop
      vertex -10.45 0.45 5
      vertex -30 -5 5
      vertex -10.45 -5 5
    endloop
  endfacet
  facet normal 1 -0 0
    outer loop
      vertex 30 -5 5
      vertex 30 5 -5
      vertex 30 5 5
    endloop
  endfacet
  facet normal 1 0 0
    outer loop
      vertex 30 5 -5
      vertex 30 -5 5
      vertex 30 -5 -5
    endloop
  endfacet
  facet normal 0 1 0
    outer loop
      vertex 30 5 5
      vertex 5.45 5 -0.45
      vertex 5.45 5 5
    endloop
  endfacet
  facet normal 0 1 0
    outer loop
      vertex 5.45 5 -0.45
      vertex 30 5 -5
      vertex -5.45 5 -0.45
    endloop
  endfacet
  facet normal 0 1 -0
    outer loop
      vertex 30 5 -5
      vertex 5.45 5 -0.45
      vertex 30 5 5
    endloop
  endfacet
  facet normal 0 1 -0
    outer loop
      vertex -5.45 5 -0.45
      vertex -30 5 5
      vertex -5.45 5 5
    endloop
  endfacet
  facet normal 0 1 0
    outer loop
      vertex -5.45 5 -0.45
      vertex -30 5 -5
      vertex -30 5 5
    endloop
  endfacet
  facet normal 0 1 0
    outer loop
      vertex -30 5 -5
      vertex -5.45 5 -0.45
      vertex 30 5 -5
    endloop
  endfacet
  facet normal 0 0 -1
    outer loop
      vertex -10.45 -5 -5
      vertex -30 -5 -5
      vertex -10.45 0.45 -5
    endloop
  endfacet
  facet normal 0 0 -1
    outer loop
      vertex 0.45 0.45 -5
      vertex 30 -5 -5
      vertex 0.45 -5 -5
    endloop
  endfacet
  facet normal 0 0 -1
    outer loop
      vertex 30 -5 -5
      vertex 0.45 0.45 -5
      vertex 30 5 -5
    endloop
  endfacet
  facet normal 0 0 -1
    outer loop
      vertex -30 5 -5
      vertex 0.45 0.45 -5
      vertex -10.45 0.45 -5
    endloop
  endfacet
  facet normal 0 0 -1
    outer loop
      vertex 0.45 0.45 -5
      vertex -30 5 -5
      vertex 30 5 -5
    endloop
  endfacet
  facet normal 0 0 -1
    outer loop
      vertex -30 5 -5
      vertex -10.45 0.45 -5
      vertex -30 -5 -5
    endloop
  endfacet
  facet normal 0 -1 0
    outer loop
      vertex 0.45 -5 -0.45
      vertex 0.45 -5 -5
      vertex 10.45 -5 -0.45
    endloop
  endfacet
  facet normal 0 -1 0
    outer loop
      vertex 10.45 -5 -0.45
      vertex 30 -5 5
      vertex 10.45 -5 5
    endloop
  endfacet
  facet normal 0 -1 0
    outer loop
      vertex 30 -5 -5
      vertex 10.45 -5 -0.45
      vertex 0.45 -5 -5
    endloop
  endfacet
  facet normal 0 -1 0
    outer loop
      vertex 10.45 -5 -0.45
      vertex 30 -5 -5
      vertex 30 -5 5
    endloop
  endfacet
  facet normal 0 -1 0
    outer loop
      vertex -30 -5 -5
      vertex -10.45 -5 5
      vertex -30 -5 5
    endloop
  endfacet
  facet normal 0 -1 -0
    outer loop
      vertex -10.45 -5 5
      vertex -30 -5 -5
      vertex -10.45 -5 -5
    endloop
  endfacet
endsolid OpenSCAD_Model
